<?xml version="1.0" encoding="UTF-8" standalone="no"?>
<!-- Created with Inkscape (http://www.inkscape.org/) -->
<svg xmlns:dc="http://purl.org/dc/elements/1.1/" xmlns:cc="http://creativecommons.org/ns#" xmlns:rdf="http://www.w3.org/1999/02/22-rdf-syntax-ns#" xmlns:svg="http://www.w3.org/2000/svg" xmlns="http://www.w3.org/2000/svg" version="1.1" width="441" height="531" id="svg2">
  <metadata id="metadata8">
    <rdf:RDF>
      <cc:Work rdf:about="">
        <dc:format>image/svg+xml</dc:format>
        <dc:type rdf:resource="http://purl.org/dc/dcmitype/StillImage"/>
        <dc:title/>
      </cc:Work>
    </rdf:RDF>
  </metadata>
  <defs id="defs6"/>
  <path d="m 29.658104,115.7866 381.318416,0 3.24558,338.76851 c -52.66852,71.05274 -293.47716,108.32194 -386.561276,0 z" id="rect3100" style="color:#000000;fill:#ffcc00;fill-opacity:1;fill-rule:nonzero;stroke:none;marker:none;visibility:visible;display:inline;overflow:visible;enable-background:accumulate"/>
  <g transform="matrix(0.99517019,0,0,1.0048175,-553.65056,-164.49775)" id="g3115">
    <path d="m 858.92409,351.38377 c -2.79717,-1.03095 -5.2662,-2.87066 -6.36191,-4.74036 -1.12616,-1.92165 -2.61865,-7.24486 -2.61865,-9.33986 l 0,-0.85702 1.074,0.14721 c 3.0621,0.41971 10.11921,3.4067 11.63191,4.92333 1.32541,1.32884 1.62246,2.27022 1.61247,5.11001 -0.01,2.76925 -0.35428,4.17624 -1.16105,4.74132 -0.65889,0.4615 -2.94351,0.46991 -4.17677,0.0154 l 0,0 z m -2.03175,-4.48754 c 2.76021,-1.75866 4.15117,-4.27369 3.27207,-5.91631 -1.02138,-1.90847 -4.18852,-0.52327 -6.25544,2.73593 -0.97284,1.53401 -0.95246,2.54485 0.0687,3.40406 0.8971,0.75485 1.44489,0.71281 2.91472,-0.22368 l 0,0 z" id="path3113" style="color:#000000;fill:#ffffff;fill-opacity:1;fill-rule:nonzero;stroke:#ffffff;stroke-opacity:1;marker:none;visibility:visible;display:inline;overflow:visible;enable-background:accumulate"/>
    <g transform="translate(-192.07151,268.33519)" id="g3103">
      <path d="m 863.9119,382.28464 c -2.20075,-1.54146 -2.71073,-4.02401 -1.64314,-7.9986 1.67458,-6.23437 34.18122,-17.66231 60.75284,-21.35808 11.16764,-1.55328 46.09254,-1.30719 58.66779,0.41338 5.8391,0.79892 18.62711,1.4507 28.80851,1.46832 17.1896,0.0297 19.0526,-0.15617 30.4843,-3.04225 11.4612,-2.8935 12.679,-3.44857 20.7486,-9.45692 10.8228,-8.05824 16.5858,-16.1007 21.4869,-29.98555 3.2928,-9.3284 3.4857,-10.54143 2.9389,-18.4836 -0.4249,-6.17147 -1.5607,-11.16673 -4.1459,-18.23457 -3.3872,-9.26022 -3.9082,-10.04473 -10.691,-16.09941 -11.7188,-10.46071 -28.4722,-19.9321 -50.8796,-28.76427 l -4.9286,-1.94269 0.7001,11.77047 c 1.844,30.99864 -7.2744,50.84994 -32.90369,71.63304 -15.68762,12.7213 -41.28929,23.88287 -60.94088,26.56844 -14.71076,2.01035 -38.36797,1.35995 -54.45522,-1.49713 -25.4162,-4.51389 -37.94184,-10.42489 -59.06083,-27.87153 -6.34839,-5.24448 -7.95389,-7.27655 -11.90053,-15.06235 -6.63461,-13.08857 -9.26106,-23.51194 -9.26106,-36.75356 0,-22.44775 5.63943,-36.97425 20.76441,-53.48658 6.6447,-7.2542 10.32577,-10.30567 17.12719,-14.19783 11.9206,-6.82163 24.66401,-11.48077 40.34054,-14.74898 12.34286,-2.5732 14.80165,-2.75644 35.26786,-2.6282 20.15594,0.12629 23.41141,0.40329 38.83844,3.30472 9.26115,1.74178 17.06161,2.94372 17.33436,2.67096 0.27275,-0.27275 -2.32408,-5.59545 -5.77074,-11.82822 -13.82923,-25.00807 -26.0136,-54.98006 -30.38118,-74.73379 -2.93486,-13.27385 -3.40459,-30.18938 -1.08076,-38.91967 1.94523,-7.30791 8.81901,-18.33084 14.16017,-22.70752 13.92176,-11.40783 40.73189,-13.35746 63.30554,-4.60356 9.51758,3.69087 16.26788,8.01876 32.09418,20.57695 3.575,2.83677 11.7358,7.75575 18.1351,10.93105 14.9542,7.42017 17.6754,10.87373 20.8361,26.44352 1.7031,8.38928 3.2109,12.42588 8.0619,21.58268 3.2818,6.19487 5.9669,11.70383 5.9669,12.24215 0,0.53832 -0.9121,1.95779 -2.0269,3.1544 l -2.0269,2.17564 2.185,4.26292 c 1.483,2.89346 2.3177,6.67229 2.5981,11.76292 0.3765,6.83409 1.7935,13 2.9876,13 2.4097,0 6.4718,-5.11925 9.6678,-12.18363 2.0693,-4.574 4.1121,-8.99137 4.5397,-9.81637 2.7827,-5.36965 23.7445,3.72263 28.1499,12.21016 3.0711,5.91684 2.5148,7.55413 -5.8221,17.13768 -11.0054,12.65113 -21.5498,17.55833 -34.7522,16.17322 -5.2055,-0.54612 -6.6597,-1.2021 -10.9819,-4.95377 l -4.9818,-4.32428 -0.1606,-15.87151 c -0.1105,-10.92007 -0.5841,-16.80741 -1.5181,-18.8715 -2.3844,-5.26904 -6.1248,-9.5 -8.3987,-9.5 -1.3151,0 -5.461,-3.05475 -10.5619,-7.78223 -4.6184,-4.28023 -10.422,-9.30613 -12.897,-11.16867 -13.4566,-10.12662 -19.2675,-18.21442 -20.5243,-28.56651 -0.3995,-3.29042 -1.0951,-6.69404 -1.5458,-7.5636 -0.8242,-1.59028 -13.8091,-9.87462 -21.63454,-13.80274 -6.04995,-3.0369 -17.15253,-4.41149 -24.65023,-3.0519 -9.00777,1.63342 -11.22497,3.16033 -14.76118,10.16553 -3.06105,6.06389 -3.11045,6.38895 -2.61809,17.22532 0.85925,18.91117 3.86223,27.00178 25.90561,69.79474 10.41179,20.21247 19.55623,38.24746 20.32098,40.07777 1.22935,2.94215 2.06365,3.47732 7.19895,4.6177 9.9521,2.21 36.5295,12.65065 52.0024,20.4286 18.0426,9.0697 31.5522,18.93483 39.614,28.9273 14.2114,17.61479 21.4705,40.18672 20.1458,62.64251 -0.8044,13.63446 -3.3593,22.95505 -9.7576,35.5957 -8.4661,16.72589 -26.9936,31.3996 -47.196,37.379 -26.091,7.72228 -43.03,7.72468 -93.97649,0.0133 -16.35199,-2.47504 -29.49311,-3.93182 -35.46788,-3.93182 -10.58456,0 -47.55445,5.87503 -57.27409,9.10165 -6.92576,2.29914 -7.72731,2.32507 -10.55904,0.34165 z m 54.77749,-79.30867 c 6.74809,-1.83393 15.14522,-5.19715 23.5,-9.41223 11.48562,-5.79462 13.88693,-7.47099 20.61376,-14.39052 12.66807,-13.03098 18.86236,-25.8415 18.8786,-39.04315 0.007,-5.96735 -3.34096,-23.06301 -4.7914,-24.46376 -0.38553,-0.37232 -10.37596,-2.79439 -22.20096,-5.38236 l -21.5,-4.70542 -25,0.011 c -24.70333,0.0108 -25.1246,0.0463 -35.5,2.98884 -15.49931,4.3957 -25.03089,9.60813 -33.70655,18.43273 -7.66302,7.79457 -11.47934,14.67553 -12.68531,22.87205 -0.99543,6.7656 1.72994,18.01289 6.42629,26.52059 6.64885,12.04475 21.06995,22.18659 38.46557,27.05146 6.51838,1.82293 10.68544,2.24998 22.5,2.30584 12.9531,0.0612 15.62017,-0.23587 25,-2.78504 z M 1056.4942,79.14616 c 0.2253,-3.10067 -0.1999,-4.69988 -1.6296,-6.12966 -2.0909,-2.09088 -11.9322,-5.75152 -12.8893,-4.7944 -0.3215,0.32149 0.045,2.93717 0.8148,5.81263 1.0851,4.05415 2.1775,5.75241 4.8649,7.56298 1.9452,1.31056 4.5774,2.20518 6,2.03925 2.2044,-0.25713 2.5741,-0.84184 2.8392,-4.4908 z m -10.7182,-0.70049 c -0.8218,-0.99023 -0.5759,-1.98387 0.9809,-3.96296 2.1021,-2.67251 4.3482,-3.39585 5.3767,-1.73161 0.884,1.4303 -0.3992,3.83073 -2.9365,5.49321 -1.9154,1.25504 -2.5172,1.29046 -3.4211,0.20136 z m 72.9134,47.74068 c 0,-2.50876 -0.1007,-2.56384 -1.8287,-1 -3.5496,3.21227 -4.3827,2.14258 -3.6512,-4.68783 0.6707,-6.2632 0.6006,-6.5111 -5.583,-19.75 l -6.2623,-13.40718 -0.4267,-12.5 c -0.3772,-11.04807 -0.1767,-13.13885 1.726,-18 1.1841,-3.025 3.2892,-7.15674 4.678,-9.18164 3.3699,-4.91332 4.2299,-13.78173 1.9773,-20.39245 -2.043,-5.99617 -2.0581,-8.32416 -0.059,-9.09136 2.5772,-0.98896 9.004,6.17973 11.483,12.80862 3.6202,9.68033 1.2945,17.29696 -8.0479,26.35683 -7.5748,7.3457 -8.1777,9.14647 -1.7867,5.33644 2.9046,-1.7316 6.5063,-3.86568 8.0037,-4.7424 3.5677,-2.08877 8.4473,-13.52706 9.3189,-21.84404 0.4073,-3.88712 1.1153,-6.25 1.8728,-6.25 0.6699,0 2.4937,2.66907 4.0528,5.93128 2.5044,5.23979 2.7651,6.66793 2.2361,12.25 -0.3294,3.47529 -1.1054,8.66162 -1.7246,11.52517 -1.0208,4.72138 -1.6862,5.62297 -7.1416,9.67696 -8.8175,6.55238 -11.0554,9.9682 -10.2185,15.59707 0.3696,2.48574 1.2587,6.09452 1.9758,8.01952 1.2665,3.40004 1.2871,3.33667 0.7207,-2.21923 -0.8003,-7.84922 0.6873,-10.81389 8.1903,-16.32237 5.5435,-4.06992 6.6828,-5.5092 9.5305,-12.04044 1.7788,-4.07988 3.8127,-7.41796 4.5198,-7.41796 4.0317,0 2.0814,15.61055 -2.9986,24 -1.8317,3.025 -4.1521,7.83475 -5.1565,10.68833 -1.6152,4.58911 -1.6816,5.88824 -0.5744,11.24861 1.6698,8.0846 0.374,12.67192 -6.0204,21.31306 -5.4215,7.32637 -8.8057,8.90015 -8.8057,4.09501 z m 7.8057,-5.09501 c 5.8044,-7.84379 7.6292,-13.24666 6.1804,-18.29855 -2.2004,-7.67226 -0.3931,-15.50974 5.8447,-25.34564 3.3017,-5.20631 5.7021,-15.99114 4.3641,-19.60805 -0.7167,-1.93736 -1.2532,-1.24474 -4.1089,5.30494 -2.9034,6.65914 -4.0151,8.06957 -9.5807,12.1557 -9.2438,6.78653 -9.3578,7.28474 -6.4172,28.0416 0.5622,3.96853 0.6286,8.26103 0.1534,9.91187 -0.7057,2.45131 -1.0287,1.48161 -2.0422,-6.13091 -0.6622,-4.97352 -1.8387,-10.84186 -2.6146,-13.04076 -0.7758,-2.19889 -1.7049,-6.41499 -2.0646,-9.36909 -0.5758,-4.7287 -0.3577,-5.76856 1.8235,-8.69416 1.3626,-1.82767 5.1847,-5.33477 8.4934,-7.79354 5.4563,-4.05465 6.1195,-4.95346 7.1294,-9.66243 2.6215,-12.22351 2.5036,-15.85494 -0.7219,-22.2337 l -2.9971,-5.92711 -0.6804,6.46992 c -0.3743,3.55845 -2.0228,9.61991 -3.6635,13.46991 -2.8148,6.60523 -3.3615,7.22128 -9.6933,10.92368 -3.6906,2.15803 -8.0171,5.08303 -9.6145,6.5 -2.277,2.01993 -2.7629,2.18072 -2.25,0.74453 0.3599,-1.00748 0.6543,-2.51373 0.6543,-3.34723 0,-0.83349 2.8691,-4.50919 6.3758,-8.16821 10.2369,-10.68159 12.0588,-15.96862 8.6469,-25.09217 -2.3002,-6.1505 -9.2235,-14.16268 -10.4806,-12.12876 -0.3783,0.61221 0.076,3.41318 1.0098,6.22439 2.4352,7.33169 1.5948,17.56865 -1.8552,22.59776 -5.5511,8.09195 -6.9204,13.67009 -6.4431,26.24601 l 0.4364,11.5 6.2798,13.46215 c 6.1382,13.15865 6.2664,13.60495 5.6883,19.79639 l -0.5915,6.33424 2.7167,-2.14682 2.7167,-2.14682 0.3134,3.10043 c 0.1723,1.70524 0.6922,3.10043 1.1553,3.10043 0.4631,0 3.0897,-3.0375 5.837,-6.75 z" id="path3069" style="fill:#1a8e04;fill-opacity:1"/>
      <path d="m 863.9119,382.28464 c -2.20075,-1.54146 -2.71073,-4.02401 -1.64314,-7.9986 1.67458,-6.23437 34.18122,-17.66231 60.75284,-21.35808 11.16764,-1.55328 46.09254,-1.30719 58.66779,0.41338 5.8391,0.79892 18.62711,1.4507 28.80851,1.46832 17.1896,0.0297 19.0526,-0.15617 30.4843,-3.04225 11.4612,-2.8935 12.679,-3.44857 20.7486,-9.45692 10.8228,-8.05824 16.5858,-16.1007 21.4869,-29.98555 3.2928,-9.3284 3.4857,-10.54143 2.9389,-18.4836 -0.4249,-6.17147 -1.5607,-11.16673 -4.1459,-18.23457 -3.3872,-9.26022 -3.9082,-10.04473 -10.691,-16.09941 -11.7188,-10.46071 -28.4722,-19.9321 -50.8796,-28.76427 l -4.9286,-1.94269 0.7001,11.77047 c 1.844,30.99864 -7.2744,50.84994 -32.90369,71.63304 -15.68762,12.7213 -41.28929,23.88287 -60.94088,26.56844 -14.71076,2.01035 -38.36797,1.35995 -54.45522,-1.49713 -25.4162,-4.51389 -37.94184,-10.42489 -59.06083,-27.87153 -6.34839,-5.24448 -7.95389,-7.27655 -11.90053,-15.06235 -6.63461,-13.08857 -9.26106,-23.51194 -9.26106,-36.75356 0,-22.44775 5.63943,-36.97425 20.76441,-53.48658 6.6447,-7.2542 10.32577,-10.30567 17.12719,-14.19783 11.9206,-6.82163 24.66401,-11.48077 40.34054,-14.74898 12.34286,-2.5732 14.80165,-2.75644 35.26786,-2.6282 20.15594,0.12629 23.41141,0.40329 38.83844,3.30472 9.26115,1.74178 17.06161,2.94372 17.33436,2.67096 0.27275,-0.27275 -2.32408,-5.59545 -5.77074,-11.82822 -13.82923,-25.00807 -26.0136,-54.98006 -30.38118,-74.73379 -2.93486,-13.27385 -3.40459,-30.18938 -1.08076,-38.91967 1.94523,-7.30791 8.81901,-18.33084 14.16017,-22.70752 13.92176,-11.40783 40.73189,-13.35746 63.30554,-4.60356 9.51758,3.69087 16.26788,8.01876 32.09418,20.57695 3.575,2.83677 11.7358,7.75575 18.1351,10.93105 14.9542,7.42017 17.6754,10.87373 20.8361,26.44352 1.7031,8.38928 3.2109,12.42588 8.0619,21.58268 3.2818,6.19487 5.9669,11.70383 5.9669,12.24215 0,0.53832 -0.9121,1.95779 -2.0269,3.1544 l -2.0269,2.17564 2.185,4.26292 c 1.483,2.89346 2.3177,6.67229 2.5981,11.76292 0.3765,6.83409 1.7935,13 2.9876,13 2.4097,0 6.4718,-5.11925 9.6678,-12.18363 2.0693,-4.574 4.1121,-8.99137 4.5397,-9.81637 2.7827,-5.36965 23.7445,3.72263 28.1499,12.21016 3.0711,5.91684 2.5148,7.55413 -5.8221,17.13768 -11.0054,12.65113 -21.5498,17.55833 -34.7522,16.17322 -5.2055,-0.54612 -6.6597,-1.2021 -10.9819,-4.95377 l -4.9818,-4.32428 -0.1606,-15.87151 c -0.1105,-10.92007 -0.5841,-16.80741 -1.5181,-18.8715 -2.3844,-5.26904 -6.1248,-9.5 -8.3987,-9.5 -1.3151,0 -5.461,-3.05475 -10.5619,-7.78223 -4.6184,-4.28023 -10.422,-9.30613 -12.897,-11.16867 -13.4566,-10.12662 -19.2675,-18.21442 -20.5243,-28.56651 -0.3995,-3.29042 -1.0951,-6.69404 -1.5458,-7.5636 -0.8242,-1.59028 -13.8091,-9.87462 -21.63454,-13.80274 -6.04995,-3.0369 -17.15253,-4.41149 -24.65023,-3.0519 -9.00777,1.63342 -11.22497,3.16033 -14.76118,10.16553 -3.06105,6.06389 -3.11045,6.38895 -2.61809,17.22532 0.85925,18.91117 3.86223,27.00178 25.90561,69.79474 10.41179,20.21247 19.55623,38.24746 20.32098,40.07777 1.22935,2.94215 2.06365,3.47732 7.19895,4.6177 9.9521,2.21 36.5295,12.65065 52.0024,20.4286 18.0426,9.0697 31.5522,18.93483 39.614,28.9273 14.2114,17.61479 21.4705,40.18672 20.1458,62.64251 -0.8044,13.63446 -3.3593,22.95505 -9.7576,35.5957 -8.4661,16.72589 -26.9936,31.3996 -47.196,37.379 -26.091,7.72228 -43.03,7.72468 -93.97649,0.0133 -16.35199,-2.47504 -29.49311,-3.93182 -35.46788,-3.93182 -10.58456,0 -47.55445,5.87503 -57.27409,9.10165 -6.92576,2.29914 -7.72731,2.32507 -10.55904,0.34165 z m 9.55904,-1.34165 c 3.14515,-1.04409 15.1829,-3.51909 26.75056,-5.5 27.83281,-4.76624 34.52775,-4.73403 67.99141,0.32709 50.58219,7.65015 66.10049,7.64842 91.97649,-0.0102 20.2024,-5.9794 38.7299,-20.65311 47.196,-37.379 6.1572,-12.16436 8.9009,-21.91084 9.7233,-34.53952 1.3899,-21.34234 -6.1064,-44.33959 -20.1115,-61.69869 -11.7271,-14.53559 -36.7664,-29.72442 -68.8606,-41.77081 -17.3479,-6.51145 -65.03048,-19.13985 -88.94721,-23.55706 -15.31054,-2.82772 -19.08698,-3.15343 -38,-3.27739 -19.36251,-0.12692 -22.03457,0.0776 -34.26786,2.6227 -15.66866,3.25983 -28.41223,7.91724 -40.34054,14.74328 -6.80142,3.89216 -10.48249,6.94363 -17.12719,14.19783 -10.66324,11.64133 -15.96785,21.13269 -18.71138,33.47955 -4.31719,19.42899 -2.07785,36.44167 7.20803,54.76059 3.94664,7.7858 5.55214,9.81787 11.90053,15.06235 21.11899,17.44664 33.64463,23.35764 59.06083,27.87153 16.06265,2.85271 37.96208,3.47774 52.45522,1.49713 19.65159,-2.68557 45.25326,-13.84714 60.94088,-26.56844 25.77959,-20.90503 34.97739,-41.08584 32.73639,-71.82693 l -0.8549,-11.72791 -5.9582,-2.41946 c -5.9129,-2.40109 -28.74813,-9.51531 -29.17429,-9.08914 -0.12224,0.12223 0.6297,3.81743 1.67096,8.21155 5.1763,21.84384 0.22239,38.18285 -16.92472,55.82118 -6.72683,6.91953 -9.12814,8.5959 -20.61376,14.39052 -8.35478,4.21508 -16.75191,7.5783 -23.5,9.41223 -9.33084,2.53585 -12.15168,2.85425 -25.33339,2.85948 -11.70504,0.005 -16.53175,-0.42774 -22.88639,-2.05022 -10.41263,-2.65859 -20.58309,-7.79852 -29.0167,-14.66443 -8.25661,-6.72181 -13.93104,-16.2456 -16.30434,-27.36469 -3.09337,-14.49271 0.29221,-25.00484 11.83427,-36.74504 8.67252,-8.8214 18.19846,-14.03216 33.70655,-18.43771 10.43006,-2.96299 10.67318,-2.98293 36.5,-2.99372 l 26,-0.0109 21.12066,4.64123 c 28.85392,6.3406 48.96135,12.33441 60.87935,18.14745 1.65,0.8048 9.2487,4.16056 16.886,7.45724 16.4979,7.12145 29.4803,14.95629 39.2443,23.684 6.7733,6.05446 7.3092,6.8608 10.7053,16.10808 2.7924,7.60354 3.7036,11.81425 4.1624,19.23457 0.5607,9.06918 0.4268,9.95275 -2.9532,19.4836 -4.9266,13.89199 -10.6984,21.94054 -21.5034,29.98555 -8.0696,6.00835 -9.2874,6.56342 -20.7486,9.45692 -11.543,2.91417 -13.1793,3.07228 -31.4843,3.04225 -11.05454,-0.0181 -23.79704,-0.64579 -29.80851,-1.46829 -12.53738,-1.71539 -45.57399,-1.95639 -56.66779,-0.41338 -20.18971,2.80813 -41.85805,9.24475 -54.5495,16.20403 -4.44664,2.43828 -5.86273,3.79721 -6.37169,6.11445 -0.51807,2.35876 -0.18933,3.356 1.57808,4.78716 2.70685,2.19187 1.89154,2.20028 8.79245,-0.0906 z m 45.21845,-77.96702 c 6.74809,-1.83393 15.14522,-5.19715 23.5,-9.41223 11.48562,-5.79462 13.88693,-7.47099 20.61376,-14.39052 12.66807,-13.03098 18.86236,-25.8415 18.8786,-39.04315 0.007,-5.96735 -3.34096,-23.06301 -4.7914,-24.46376 -0.38553,-0.37232 -10.37596,-2.79439 -22.20096,-5.38236 l -21.5,-4.70542 -25,0.011 c -24.70333,0.0108 -25.1246,0.0463 -35.5,2.98884 -15.49931,4.3957 -25.03089,9.60813 -33.70655,18.43273 -7.66302,7.79457 -11.47934,14.67553 -12.68531,22.87205 -0.99543,6.7656 1.72994,18.01289 6.42629,26.52059 6.64885,12.04475 21.06995,22.18659 38.46557,27.05146 6.51838,1.82293 10.68544,2.24998 22.5,2.30584 12.9531,0.0612 15.62017,-0.23587 25,-2.78504 z m 80,-113.76715 c 0,-0.34788 -8.94567,-18.01334 -19.87927,-39.25656 -23.44961,-45.56097 -26.04591,-52.58459 -26.86022,-72.66332 -0.48425,-11.94035 -0.45982,-12.1098 2.62729,-18.22533 3.57929,-7.09053 5.81921,-8.59028 15.29415,-10.24027 8.03261,-1.39882 19.91958,0.0248 26.0957,3.12521 7.84166,3.93655 20.82726,12.21996 21.65226,13.81178 0.4507,0.86956 1.1463,4.27318 1.5458,7.5636 1.2568,10.35209 7.0677,18.43989 20.5243,28.56651 2.475,1.86254 8.2786,6.88844 12.897,11.16867 4.6183,4.28023 8.7998,7.78223 9.2921,7.78223 0.4924,0 -0.2488,-1.95204 -1.647,-4.33786 -3.1138,-5.3133 -3.577,-12.69056 -0.7921,-12.61409 1.0085,0.0277 3.2329,2.40388 5.25,5.60822 3.2786,5.20842 10.3475,11.34373 13.0699,11.34373 0.6653,0 1.7945,-0.7875 2.5093,-1.75 1.1219,-1.51057 0.4916,-3.27973 -4.6067,-12.93071 -4.7798,-9.04802 -6.306,-13.14908 -8.0013,-21.5 -3.1607,-15.56979 -5.8819,-19.02335 -20.8361,-26.44352 -6.3993,-3.1753 -14.5601,-8.09428 -18.1351,-10.93105 -15.8025,-12.53936 -22.5808,-16.88771 -32.04661,-20.5585 -22.19786,-8.60817 -47.56608,-6.71232 -61.35311,4.58511 -5.34116,4.37668 -12.21494,15.39961 -14.16017,22.70752 -3.88139,14.58179 -0.57674,37.2232 9.2376,63.29048 7.28307,19.3441 10.57613,26.55186 21.09242,46.16654 l 8.65115,16.13586 18.53935,4.98614 c 21.24854,5.71477 20.03936,5.43663 20.03936,4.60961 z M 1045.776,78.44567 c -0.8218,-0.99023 -0.5759,-1.98387 0.9809,-3.96296 2.1021,-2.67251 4.3482,-3.39585 5.3767,-1.73161 0.884,1.4303 -0.3992,3.83073 -2.9365,5.49321 -1.9154,1.25504 -2.5172,1.29046 -3.4211,0.20136 z m 61.1396,92.22108 c 6.4482,-2.97146 9.4664,-5.76267 20.5511,-19.0057 1.2779,-1.52662 0.7758,-1.86811 -5.4901,-3.73417 -7.3746,-2.19626 -14.0099,-6.09027 -18.6633,-10.95285 l -2.8761,-3.00537 -3.7679,7.68634 c -2.3575,4.80906 -5.0707,8.69414 -7.2481,10.37857 l -3.4802,2.69224 -1.5632,-3.69224 c -0.8597,-2.03072 -1.7532,-7.06723 -1.9854,-11.19223 -0.5697,-10.11684 -3.4358,-15.86726 -10.1456,-20.35561 -3.1392,-2.09988 -6.3849,-5.50039 -8.5574,-8.96564 -1.925,-3.07045 -3.8375,-5.60427 -4.25,-5.6307 -0.4125,-0.0264 -0.7483,1.41445 -0.7463,3.20195 0,3.56748 2.31,7.86441 7.9155,14.75 5.9422,7.29927 6.3381,8.90297 6.5183,26.39967 l 0.1637,15.89967 4.9494,4.30128 c 2.7222,2.3657 6.2994,4.50011 7.9494,4.74312 6.121,0.90151 14.0591,-0.446 20.7262,-3.51833 z m 20.9676,-27.54513 c -1.9815,-4.15537 -10.5138,-10.04899 -18.4492,-12.74369 -5.4164,-1.83932 -5.8554,-1.85432 -7.4551,-0.2547 -1.5996,1.59961 -1.4994,1.90636 1.7014,5.20873 5.2306,5.3966 10.6126,8.7391 17.877,11.10262 7.5731,2.4639 8.7794,1.8321 6.3259,-3.31296 z" id="path3067" style="fill:#333333;fill-opacity:1"/>
      <path d="m 1084.6019,173.50632 c -2.4671,-0.91112 -9.2992,-6.28048 -10.8135,-8.16884 -0.3658,-0.45617 -0.2208,-7.39656 -0.4329,-15.74672 -0.2121,-8.35017 -0.7547,-16.49262 -1.2058,-18.09434 -0.4511,-1.60171 -2.5845,-5.25601 -4.741,-8.12067 -6.9345,-9.21204 -9.3815,-14.28937 -8.0409,-16.6848 0.4247,-0.75896 1.3909,0.13458 3.8076,3.52126 1.7812,2.49607 5.4313,7.37419 8.9814,9.71545 3.2469,2.14128 6.8155,6.41459 7.5871,7.92703 0.833,1.63295 1.5243,6.6379 2.3469,12.32212 0.762,5.26473 1.9408,10.84573 2.6195,12.40223 l 1.2341,2.83 3.5473,-3.18933 c 2.5421,-2.28559 4.6103,-5.22206 7.2987,-10.36287 l 3.7514,-7.17354 3.6404,3.43929 c 4.5749,4.32211 8.8002,6.8035 16.5505,9.71951 3.3566,1.26295 7.347,2.14432 7.4649,2.49802 0.3789,1.13675 -11.7187,13.94084 -15.5202,17.01892 -6.3772,5.16378 -22.4406,8.22825 -28.0755,6.14728 z" id="path3073" style="color:#000000;fill:#bb5e00;fill-opacity:1;fill-rule:nonzero;stroke:#bb5e00;marker:none;visibility:visible;display:inline;overflow:visible;enable-background:accumulate"/>
      <path d="m 1120.8303,145.74146 c -6.5594,-2.09625 -13.4838,-6.61815 -16.8987,-10.71633 -2.7704,-3.32467 -3.5784,-3.34695 -2.2561,-4.66924 1.2805,-1.28054 2.1174,-1.09555 5.8203,-0.13258 11.5038,2.99166 21.1581,11.47036 21.1581,16.47305 0,1.17441 -2.6224,0.70728 -7.8236,-0.9549 z" id="path3075" style="color:#000000;fill:#8d550a;fill-opacity:1;fill-rule:nonzero;stroke:#8d550a;marker:none;visibility:visible;display:inline;overflow:visible;enable-background:accumulate"/>
      <path d="m 1120.1955,127.13339 c -0.3514,-0.84108 -0.5638,-1.90108 -0.7107,-3.54682 -0.2045,-2.29073 -0.019,-2.2899 -2.9072,-0.0131 -1.4059,1.10847 -2.5824,1.94312 -2.6144,1.85479 -0.032,-0.0883 0.1172,-2.04824 0.3315,-4.35533 0.4525,-4.87191 0.4009,-6.66046 -0.2566,-8.90395 -0.73,-2.49062 -1.5004,-4.24473 -8.0557,-18.341593 l -3.4949,-7.515622 -0.1884,-4.577115 c -0.4922,-11.956363 -0.4281,-15.5946 0.3499,-19.841937 0.7301,-3.986506 2.3999,-7.982824 5.0116,-11.994281 2.9203,-4.485551 3.9674,-8.350215 3.9743,-14.668272 0,-3.484339 -0.3386,-5.84849 -1.3827,-9.545306 -1.0305,-3.648637 -1.2732,-5.312622 -0.8579,-5.880583 1.0255,-1.402485 6.2384,4.196946 9.0686,9.741052 2.3059,4.517085 3.175,8.915621 2.4461,12.380355 -0.8295,3.943344 -3.0626,7.474959 -8.4529,13.368193 -4.8281,5.278499 -6.8451,7.718861 -7.5654,9.153049 -0.1463,0.291285 -0.3218,0.966536 -0.39,1.500559 -0.068,0.534022 -0.2708,1.500774 -0.4502,2.148337 -0.5219,1.88449 -0.3375,1.861219 2.3815,-0.300512 2.4441,-1.943121 5.8481,-4.234061 9.9115,-6.670458 5.6966,-3.415741 6.6735,-4.495044 8.9766,-9.917583 2.3233,-5.47017 3.7626,-11.213685 4.3357,-17.301125 0.1188,-1.262235 0.2707,-2.446761 0.3376,-2.632281 0.091,-0.252119 0.5961,0.617296 2.0004,3.442458 2.8442,5.722168 3.3474,7.427509 3.3287,11.28256 -0.014,2.781808 -0.3334,5.401639 -1.1921,9.763468 -0.7598,3.859141 -1.3504,5.937481 -2.0163,7.094765 -0.6713,1.166725 -2.1932,2.613486 -5.2055,4.948348 -6.557,5.082347 -9.984,8.744868 -10.7959,11.537937 -0.6379,2.194235 0.2282,8.540246 1.9785,14.496823 1.1466,3.902261 1.7819,7.061804 2.8052,13.951464 0.6276,4.22577 1.0384,6.46659 1.2186,6.64678 0.2245,0.22446 0.5872,-0.12162 0.7996,-0.76288 0.3311,-1.00004 0.4556,-5.51679 0.2163,-7.85464 -0.1129,-1.10353 -0.4377,-3.71441 -0.7216,-5.80195 -0.9572,-7.036064 -1.1313,-8.868624 -1.1407,-12.004472 -0.01,-2.516269 0.051,-3.285883 0.3154,-4.148604 0.8708,-2.841509 2.2563,-4.408835 7.1782,-8.120188 6.3203,-4.765831 6.8367,-5.4306 10.608,-13.657587 1.7146,-3.740496 2.4805,-5.144012 2.8067,-5.144012 0.093,0 0.3106,0.258184 0.483,0.573743 0.2683,0.49106 0.3114,1.01896 0.2991,3.663128 -0.013,2.684215 -0.078,3.378792 -0.5001,5.29609 -1.0684,4.854549 -2.4131,8.275037 -4.8026,12.215571 -1.1682,1.926565 -3.0462,5.641075 -3.8009,7.517776 -0.7797,1.938921 -1.6963,5.288922 -1.9322,7.062199 -0.3424,2.572489 -0.1238,6.24591 0.5432,9.129596 0.5173,2.23684 0.5626,2.65589 0.477,4.4134 -0.1788,3.67073 -1.8425,7.52683 -5.4839,12.71062 -2.703,3.84795 -6.3505,8.20894 -6.866,8.20894 -0.081,0 -0.2597,-0.27081 -0.398,-0.60179 l 0,0 z" id="path3096" style="color:#000000;fill:#b3b3b3;fill-opacity:1;fill-rule:nonzero;stroke:#b3b3b3;marker:none;visibility:visible;display:inline;overflow:visible;enable-background:accumulate"/>
      <path d="m 1119.3396,128.46572 c -0.336,-0.37129 -0.6374,-1.94681 -0.6389,-3.33999 0,-1.33763 -0.2826,-1.35051 -1.8147,-0.0832 -2.2533,1.86384 -2.9085,2.13459 -3.3895,1.40056 -0.4626,-0.70604 -0.5097,-2.41567 -0.1708,-6.20766 0.3712,-4.15476 0.2728,-5.4635 -0.6052,-8.04787 -0.8276,-2.43567 -1.3848,-3.68474 -7.7917,-17.464692 l -3.4884,-7.502794 -0.1981,-5.825698 c -0.5208,-15.311298 -0.4684,-17.912393 0.4289,-21.265109 0.7903,-2.953016 3.1796,-8.225833 5.2529,-11.592361 2.6934,-4.373498 3.6549,-7.830762 3.6549,-13.142989 0,-2.888223 -0.3176,-5.164247 -1.0702,-7.670586 -1.5169,-5.05156 -1.8859,-7.330565 -1.3546,-8.364451 0.3241,-0.630759 1.0972,-1.132578 1.7175,-1.114941 0.9557,0.02717 2.1095,0.748007 3.8302,2.393051 3.704,3.54103 6.5648,8.386617 7.8663,13.323877 0.4973,1.886335 0.5453,2.313991 0.559,4.976526 0.012,2.324314 -0.053,3.180365 -0.3224,4.236871 -0.8957,3.515818 -2.8452,7.057433 -5.7334,10.415643 -0.5428,0.631117 -2.6568,2.855475 -4.6979,4.943017 -3.6449,3.727859 -4.8549,5.192813 -4.8549,5.87803 0,0.793332 1.483,0.09918 7.9442,-3.718375 4.8111,-2.842678 5.6485,-3.453423 6.6809,-4.872745 3.3241,-4.570048 6.0363,-12.028189 7.1664,-19.707022 0.2501,-1.699162 0.5617,-3.490018 0.6926,-3.979681 0.3243,-1.213525 0.8115,-2.19909 1.0872,-2.19909 0.4359,0 1.8385,1.920725 3.2229,4.413408 0.8337,1.501189 2.4467,5.256151 2.8057,6.531843 0.6753,2.399115 0.215,8.899535 -1.1778,16.633047 -0.8722,4.842744 -1.5383,6.49011 -3.3295,8.234806 -0.4623,0.45032 -2.2227,1.891091 -3.912,3.201712 -7.2155,5.598157 -9.4748,8.11315 -10.3502,11.521413 -0.5254,2.045604 -0.025,6.224746 1.2633,10.557964 0.5723,1.924638 1.4956,4.224242 1.696,4.224242 0.2089,0 0.2023,-0.196285 -0.126,-3.742866 -0.3481,-3.760197 -0.2575,-6.640284 0.2601,-8.261603 0.8977,-2.812001 3.013,-5.202576 7.8785,-8.903566 3.5676,-2.713768 5.6817,-4.79536 6.8397,-6.734359 0.4606,-0.7713 1.582,-2.99017 2.4919,-4.930822 2.5386,-5.413729 3.8313,-7.5251 4.6825,-7.647472 0.5734,-0.08244 1.1851,0.556358 1.5594,1.628726 0.4786,1.371015 0.427,6.012297 -0.098,8.845594 -1.0147,5.471748 -2.4156,9.371423 -5.0127,13.953596 -3.139,5.538202 -5.4517,11.171115 -5.9725,14.547198 -0.2379,1.54226 -0.1607,2.397975 0.5903,6.541668 0.4878,2.69166 0.5584,3.46438 0.5478,6.00223 -0.011,2.63731 -0.057,3.06314 -0.49,4.50168 -0.9896,3.28999 -3.0324,6.91485 -6.4705,11.48147 -3.6596,4.86094 -6.5732,7.12042 -7.6489,5.93175 l 0,0 z m 2.56,-1.56909 c 1.9703,-2.08611 5.3927,-6.58129 7.2285,-9.49427 1.2698,-2.01491 2.7933,-5.11695 3.3305,-6.78125 0.8845,-2.74014 0.9329,-4.97927 0.1774,-8.21889 -0.7029,-3.014138 -0.8911,-7.059044 -0.4469,-9.604256 0.7423,-4.253394 2.5836,-8.925173 5.2692,-13.368996 2.5359,-4.196152 3.6978,-6.89613 4.7135,-10.953554 0.7171,-2.864775 0.9219,-4.249279 1.0139,-6.853085 0.1,-2.830476 -0.042,-3.805749 -0.6578,-4.529099 l -0.3526,-0.413918 -0.5902,0.661521 c -0.3745,0.419709 -1.3473,2.333868 -2.6615,5.236531 -2.3189,5.121979 -3.5705,7.220332 -5.3568,8.980992 -0.6617,0.652167 -2.8277,2.429256 -4.8133,3.949085 -6.8768,5.263501 -7.6814,6.586618 -7.6599,12.595335 0.011,3.032126 0.1946,4.957334 1.1366,11.916204 0.8393,6.19927 0.9322,7.32618 0.8435,10.22699 -0.063,2.05348 -0.1605,2.92697 -0.3863,3.45457 -0.496,1.15897 -0.6491,0.59867 -1.6102,-5.89306 -1.017,-6.86895 -1.6937,-10.278105 -2.7346,-13.777713 -1.7259,-5.802535 -2.6633,-12.201387 -2.1195,-14.468139 0.2414,-1.006176 1.5742,-3.182403 2.7156,-4.434271 1.5666,-1.718059 4.602,-4.40579 8.0036,-7.086929 1.9604,-1.545215 3.8952,-3.184494 4.2996,-3.64284 1.4572,-1.651911 2.0422,-3.33006 3.1516,-9.042298 1.5239,-7.846186 1.4875,-12.194977 -0.1363,-16.275566 -0.5986,-1.504276 -4.2443,-8.867625 -4.341,-8.767531 -0.034,0.03477 -0.1904,1.33427 -0.3486,2.88779 -0.8132,7.988264 -2.3781,13.7689 -5.4244,20.036871 -1.1733,2.414088 -1.3315,2.645181 -2.7792,4.060335 -1.2604,1.232077 -2.1336,1.860824 -4.8802,3.514097 -4.566,2.748478 -7.5912,4.765375 -9.7626,6.508883 -1.0051,0.807076 -2.018,1.592216 -2.2508,1.744754 -0.3946,0.25852 -0.4232,0.254997 -0.4214,-0.0519 0,-0.181083 0.1162,-0.705816 0.2559,-1.166073 0.1396,-0.460258 0.3093,-1.326192 0.3769,-1.924299 0.1002,-0.88569 0.2701,-1.303645 0.9157,-2.252554 1.0837,-1.592947 2.7736,-3.586757 6.2396,-7.361756 4.7406,-5.163059 6.6054,-7.669569 8.0644,-10.839116 1.1373,-2.470607 1.3552,-3.467744 1.3505,-6.178739 -0.01,-3.346914 -0.6323,-5.814827 -2.4069,-9.480318 -1.9806,-4.091092 -5.9117,-9.004129 -8.0964,-10.118656 -0.8611,-0.439342 -1.0941,-0.438143 -1.4976,0.0077 -0.2979,0.329184 -0.3069,0.481446 -0.1137,1.932513 0.1154,0.866346 0.5358,2.711438 0.9344,4.100204 1.0365,3.611738 1.3834,5.993302 1.3834,9.498212 0,3.170231 -0.2701,5.515154 -0.9356,8.122697 -0.554,2.170647 -1.1857,3.540998 -2.7739,6.017396 -2.8466,4.438702 -4.5509,8.469743 -5.2705,12.465626 -0.7783,4.322245 -0.8364,7.614597 -0.3495,19.789618 l 0.1928,4.821036 2.8214,6.035947 c 4.0893,8.748639 7.2439,15.689169 7.959,17.510809 1.4334,3.65137 1.5707,5.14206 1.0201,11.07056 -0.2139,2.3021 -0.363,4.35388 -0.3315,4.55951 0.05,0.32344 0.4026,0.10058 2.6172,-1.65242 1.4078,-1.11445 2.6098,-1.99565 2.671,-1.95822 0.061,0.0374 0.1677,0.74427 0.2365,1.57073 0.2153,2.58475 0.7772,4.32827 1.3948,4.32827 0.1286,0 0.6653,-0.45678 1.1926,-1.01508 l 0,0 z" id="path3098" style="color:#000000;fill:#b3b3b3;fill-opacity:1;fill-rule:nonzero;stroke:#b3b3b3;marker:none;visibility:visible;display:inline;overflow:visible;enable-background:accumulate"/>
    </g>
  </g>
  <path d="M 79.794412,23.634639 351.30726,27.871511 422.4462,112.60894 22.286807,110.40211 z" id="rect3026" style="color:#000000;fill:#0546be;fill-opacity:1;fill-rule:nonzero;stroke:none;marker:none;visibility:visible;display:inline;overflow:visible;enable-background:accumulate"/>
  <g id="g3015">
    <path d="m 8.0470059,93.098953 21.9255851,5.830734 -0.0079,332.889853 -21.8443895,6.02627 z" id="rect2989" style="color:#000000;fill:#aa0000;fill-opacity:1;fill-rule:nonzero;stroke:none;marker:none;visibility:visible;display:inline;overflow:visible;enable-background:accumulate"/>
    <path d="M -61.744695,72.080791 59.873108,72.400785 48.520092,91.456139 -51.684847,92.059321 z" transform="matrix(0.71248785,-0.70168445,0.72318765,0.6906516,0,0)" id="rect2994" style="color:#000000;fill:#aa0000;fill-opacity:1;fill-rule:nonzero;stroke:none;marker:none;visibility:visible;display:inline;overflow:visible;enable-background:accumulate"/>
    <path d="M 94.973412,7.9977998 345.06132,7.8731447 338.83836,29.395166 100.61088,29.173139 z" id="rect2997" style="color:#000000;fill:#aa0000;fill-opacity:1;fill-rule:nonzero;stroke:none;marker:none;visibility:visible;display:inline;overflow:visible;enable-background:accumulate"/>
    <path d="m 335.73572,283.71531 99.87018,-0.43844 11.92271,18.58106 -122.29874,1.61984 z" transform="matrix(0.70600172,0.70821012,-0.72984676,0.68361079,0,0)" id="rect3000" style="color:#000000;fill:#aa0000;fill-opacity:1;fill-rule:nonzero;stroke:none;marker:none;visibility:visible;display:inline;overflow:visible;enable-background:accumulate"/>
    <path d="m 431.19404,93.348614 -21.5511,5.830736 0.0508,332.89376 21.80142,6.02236 z" id="path3003" style="color:#000000;fill:#aa0000;fill-opacity:1;fill-rule:nonzero;stroke:none;marker:none;visibility:visible;display:inline;overflow:visible;enable-background:accumulate"/>
    <path d="M 431.23028,93.357666 344.34766,8.2413495 338.65595,29.368195 409.61454,100.09703 z" id="path3005" style="color:#000000;fill:#aa0000;fill-opacity:1;fill-rule:nonzero;stroke:none;marker:none;visibility:visible;display:inline;overflow:visible;enable-background:accumulate"/>
    <path d="m 409.77907,431.84711 -76.04628,71.00547 10.79304,20.79292 87.21879,-85.85374 z" id="path3009" style="color:#000000;fill:#aa0000;fill-opacity:1;fill-rule:nonzero;stroke:none;marker:none;visibility:visible;display:inline;overflow:visible;enable-background:accumulate"/>
    <path d="m 95.452837,523.37538 249.558293,-0.0519 -11.12178,-20.90354 -233.50519,-0.21991 z" id="path3011" style="color:#000000;fill:#aa0000;fill-opacity:1;fill-rule:nonzero;stroke:none;marker:none;visibility:visible;display:inline;overflow:visible;enable-background:accumulate"/>
    <rect width="381.31842" height="13.063687" x="29.305027" y="109.07822" id="rect3013" style="color:#000000;fill:#aa0000;fill-opacity:1;fill-rule:nonzero;stroke:none;marker:none;visibility:visible;display:inline;overflow:visible;enable-background:accumulate"/>
  </g>
  <g id="text3029" style="font-size:74.62941742px;font-style:normal;font-variant:normal;font-weight:bold;font-stretch:normal;line-height:125%;letter-spacing:0px;word-spacing:0px;fill:#ffffff;fill-opacity:1;stroke:none;font-family:Arial;-inkscape-font-specification:Arial Bold">
    <path d="m 96.098155,41.392941 21.353925,0 c 4.22703,5.3e-5 7.3791,0.17618 9.45622,0.528382 2.07705,0.352307 3.93549,1.087183 5.57534,2.204629 1.63976,1.117547 3.00627,2.605518 4.09952,4.463918 1.09315,1.858491 1.63976,3.941651 1.6398,6.249484 -4e-5,2.502261 -0.67419,4.797988 -2.02242,6.887188 -1.34833,2.089266 -3.17641,3.656191 -5.48425,4.700779 3.25528,0.947471 5.7575,2.562982 7.50667,4.846539 1.74908,2.283604 2.62364,4.968025 2.62369,8.053272 -5e-5,2.429356 -0.56487,4.79189 -1.69446,7.087608 -1.1297,2.295736 -2.67233,4.129888 -4.6279,5.502462 -1.95566,1.372581 -4.36679,2.216776 -7.23337,2.53259 -1.79775,0.194348 -6.13412,0.315815 -13.00913,0.364402 l -18.183635,0 z m 10.786285,8.891395 0,12.353209 7.06939,0 c 4.20273,3.3e-5 6.81427,-0.0607 7.83463,-0.1822 1.84627,-0.218609 3.2978,-0.85631 4.3546,-1.913108 1.05672,-1.056729 1.5851,-2.447526 1.58514,-4.172396 -4e-5,-1.651914 -0.45554,-2.994124 -1.3665,-4.026637 -0.91104,-1.032427 -2.2654,-1.657982 -4.06308,-1.876667 -1.06894,-0.121423 -4.14206,-0.182156 -9.21936,-0.182201 z m 0,21.244605 0,14.284537 9.9846,0 c 3.88692,9e-6 6.3527,-0.109311 7.39735,-0.327961 1.60333,-0.291512 2.9091,-1.002094 3.91731,-2.131749 1.00814,-1.129632 1.51223,-2.641896 1.51227,-4.536798 -4e-5,-1.603349 -0.38873,-2.96378 -1.16609,-4.081296 -0.77742,-1.117477 -1.90099,-1.931306 -3.37071,-2.44149 -1.46978,-0.510139 -4.65829,-0.76522 -9.56554,-0.765243 z" id="path3136"/>
    <path d="m 150.02957,94.814194 0,-53.421253 22.70221,0 c 5.70892,5.3e-5 9.85702,0.479848 12.44431,1.439386 2.58721,0.959641 4.65822,2.666253 6.21305,5.11984 1.55473,2.453681 2.33212,5.259569 2.33216,8.417674 -4e-5,4.00845 -1.17827,7.318426 -3.53469,9.929939 -2.35651,2.61157 -5.87905,4.257448 -10.56764,4.93764 2.33213,1.360454 4.25738,2.854499 5.77576,4.482138 1.5183,1.627677 3.56502,4.518592 6.14017,8.672754 l 6.52278,10.421882 -12.89981,0 -7.79819,-11.624407 c -2.76948,-4.15416 -4.66437,-6.771775 -5.68466,-7.852851 -1.02035,-1.081037 -2.10141,-1.821986 -3.24318,-2.222849 -1.14181,-0.400819 -2.95167,-0.60124 -5.42958,-0.601262 l -2.18641,0 0,22.301369 z m 10.78628,-30.828363 7.9804,0 c 5.17447,3.1e-5 8.40549,-0.21861 9.69307,-0.655923 1.28752,-0.43725 2.2957,-1.190345 3.02454,-2.259289 0.72876,-1.068876 1.09316,-2.405013 1.0932,-4.008416 -4e-5,-1.797674 -0.47983,-3.249205 -1.43939,-4.354597 -0.95962,-1.105308 -2.31398,-1.803743 -4.06307,-2.095308 -0.8746,-0.121423 -3.49828,-0.182157 -7.87107,-0.182201 l -8.41768,0 z" id="path3138"/>
    <path d="m 252.09842,94.814194 -11.73373,0 -4.66434,-12.134569 -21.35392,0 -4.40926,12.134569 -11.44221,0 20.80733,-53.421253 11.40576,0 z M 232.23854,73.678909 224.87763,53.85547 217.66248,73.678909 z" id="path3140"/>
    <path d="m 255.12295,77.432244 10.49477,-1.020324 c 0.63161,3.522563 1.91309,6.10981 3.84443,7.761751 1.93131,1.651963 4.53678,2.477938 7.81641,2.47793 3.47394,8e-6 6.09155,-0.734867 7.85285,-2.204629 1.76124,-1.46974 2.64188,-3.188499 2.64191,-5.15628 -3e-5,-1.263242 -0.3705,-2.338225 -1.11142,-3.224953 -0.74098,-0.886691 -2.03461,-1.658006 -3.88088,-2.313949 -1.26328,-0.43726 -4.14205,-1.214649 -8.63631,-2.33217 -5.78185,-1.433287 -9.83885,-3.194559 -12.17101,-5.283821 -3.27962,-2.939473 -4.91942,-6.52275 -4.91942,-10.749842 0,-2.720822 0.77131,-5.265557 2.31395,-7.634211 1.54263,-2.36856 3.76547,-4.172345 6.66855,-5.411361 2.90305,-1.238912 6.40737,-1.858393 10.51298,-1.858448 6.70496,5.5e-5 11.75191,1.469806 15.14088,4.409258 3.38889,2.939552 5.16838,6.862937 5.33848,11.770167 l -10.78628,0.473722 c -0.46161,-2.745118 -1.45157,-4.718957 -2.96987,-5.921524 -1.51837,-1.20248 -3.79588,-1.803742 -6.83253,-1.803787 -3.13387,4.5e-5 -5.58751,0.64382 -7.36091,1.931327 -1.14181,0.82602 -1.7127,1.93137 -1.71269,3.316054 -1e-5,1.263297 0.53444,2.344354 1.60337,3.243173 1.36041,1.141827 4.66432,2.332203 9.91172,3.571134 5.24735,1.238997 9.12822,2.520474 11.64263,3.844435 2.51433,1.32402 4.48209,3.133879 5.9033,5.429582 1.42112,2.295751 2.1317,5.132006 2.13175,8.508774 -5e-5,3.060984 -0.85032,5.927606 -2.55081,8.599874 -1.70058,2.672282 -4.10563,4.658268 -7.21515,5.957964 -3.10959,1.299698 -6.98439,1.949547 -11.62441,1.949548 -6.75359,-1e-6 -11.94023,-1.560853 -15.55994,-4.682559 -3.61973,-3.121699 -5.78184,-7.670639 -6.48635,-13.646835 z" id="path3142"/>
    <path d="m 307.37812,94.814194 0,-53.421253 10.78628,0 0,53.421253 z" id="path3144"/>
    <path d="m 328.69561,94.814194 0,-52.983971 10.78629,0 0,43.983255 26.81994,0 0,9.000716 z" id="path3146"/>
  </g>
</svg>